<svg xmlns="http://www.w3.org/2000/svg" xmlns:xlink="http://www.w3.org/1999/xlink" width="500" zoomAndPan="magnify" viewBox="0 0 375 374.999991" height="500" preserveAspectRatio="xMidYMid meet" version="1.0"><defs><clipPath id="id1"><path d="M 58 37.5 L 317 37.5 L 317 325.5 L 58 325.5 Z M 58 37.5 " clip-rule="nonzero"/></clipPath></defs><rect x="-37.5" width="450" fill="#ffffff" y="-37.499999" height="449.999989" fill-opacity="1"/><rect x="-37.5" width="450" fill="#092b1b" y="-37.499999" height="449.999989" fill-opacity="1"/><rect x="-37.5" width="450" fill="#ffffff" y="-37.499999" height="449.999989" fill-opacity="1"/><rect x="-37.5" width="450" fill="#092b1b" y="-37.499999" height="449.999989" fill-opacity="1"/><g clip-path="url(#id1)"><path fill="#ffffff" d="M 58.347656 325.5 L 154.269531 325.5 L 154.269531 185.453125 L 235.488281 185.453125 L 235.488281 65.664062 L 288.53125 65.664062 L 288.53125 297.285156 L 235.488281 297.285156 L 235.488281 256.777344 L 235.082031 214.535156 L 206.851562 214.535156 L 207.308594 256.777344 L 207.308594 325.5 L 316.761719 325.5 L 316.761719 37.5 L 207.308594 37.5 L 207.308594 157.292969 L 126.039062 157.292969 L 126.039062 297.285156 L 86.527344 297.285156 L 86.527344 65.664062 L 126.039062 65.664062 L 126.039062 130.457031 L 154.269531 130.457031 L 154.269531 37.5 L 58.347656 37.5 Z M 58.347656 325.5 " fill-opacity="1" fill-rule="evenodd"/></g></svg>